<svg width="450" height="136" viewBox="0 0 450 136" fill="none" xmlns="http://www.w3.org/2000/svg">
<path d="M363.744 71.7498L364.044 71.4498L363.744 71.1498V71.7498ZM351.444 79.6998C353.644 79.3998 355.994 78.6998 358.494 77.5998C361.094 76.4998 362.544 75.1498 362.844 73.5498C363.044 72.9498 363.444 72.2498 364.044 71.4498L363.744 70.8498C363.744 70.6498 363.844 70.5498 364.044 70.5498C364.044 69.4498 363.344 68.1998 361.944 66.7998C361.544 65.5998 360.394 64.5498 358.494 63.6498C358.094 63.4498 357.644 63.0498 357.144 62.4498C356.744 61.7498 356.194 61.3998 355.494 61.3998C355.194 61.3998 354.844 61.5498 354.444 61.8498C354.144 62.0498 353.744 62.2998 353.244 62.5998C352.144 63.0998 351.494 63.6498 351.294 64.2498C351.194 64.7498 350.644 65.2498 349.644 65.7498C348.744 66.1498 347.594 67.1998 346.194 68.8998L346.494 69.0498C346.494 69.2498 346.394 69.4498 346.194 69.6498C345.994 69.8498 345.694 70.0998 345.294 70.3998C344.894 70.6998 344.694 71.0498 344.694 71.4498C344.694 71.8498 344.894 72.2498 345.294 72.6498L344.694 73.9998L345.294 74.5998C345.094 74.7998 344.994 74.9498 344.994 75.0498C344.994 75.1498 344.894 75.1998 344.694 75.1998C344.594 75.1998 344.494 75.3998 344.394 75.7998C345.994 76.5998 347.444 77.6498 348.744 78.9498C349.244 79.4498 350.144 79.6998 351.444 79.6998ZM392.694 131.75L392.994 131.6C392.994 131.5 392.894 131.4 392.694 131.3V131.75ZM396.444 135.2V135.05H396.294L396.444 135.2ZM402.144 123.05C402.344 122.85 402.594 122.7 402.894 122.6C403.194 122.5 403.594 122.4 404.094 122.3C404.594 122.2 405.294 121.4 406.194 119.9C406.594 119.1 406.794 117.7 406.794 115.7C406.794 114.2 406.644 113.25 406.344 112.85C406.144 112.45 405.844 111.95 405.444 111.35C405.044 110.75 404.644 110.1 404.244 109.4C403.844 108.6 403.044 107.3 401.844 105.5C402.344 105.8 402.944 105.95 403.644 105.95L403.944 105.8L403.044 105.5V105.05H403.344L402.744 104.75C402.944 104.75 403.044 104.65 403.044 104.45C403.044 104.25 402.844 104.15 402.444 104.15L400.944 104.45C400.444 105.15 399.294 105.8 397.494 106.4C396.694 106.8 395.994 107.05 395.394 107.15C394.894 107.25 394.244 107.7 393.444 108.5C392.744 109.2 392.294 109.7 392.094 110C391.994 110.3 391.894 110.55 391.794 110.75C391.694 110.95 391.644 111.2 391.644 111.5C391.644 111.8 391.544 112.15 391.344 112.55C391.344 114.85 391.544 116 391.944 116C392.144 116.4 392.344 116.7 392.544 116.9C392.744 117.1 392.844 117.3 392.844 117.5C393.344 118.5 393.644 119.05 393.744 119.15C393.944 119.25 394.344 119.3 394.944 119.3C394.944 120.1 395.294 120.75 395.994 121.25C397.794 122.45 398.994 123.05 399.594 123.05C399.994 123.05 400.344 122.95 400.644 122.75C400.844 122.95 401.344 123.05 402.144 123.05ZM378.894 123.05L379.194 122.45L378.894 122.6V123.05ZM447.744 28.2498L447.444 27.9498V28.2498H447.744ZM437.244 86.2998C437.044 86.0998 436.694 85.7998 436.194 85.3998C435.694 84.9998 435.444 84.6498 435.444 84.3498C435.244 84.4498 434.944 84.4998 434.544 84.4998L434.244 83.7498L435.444 83.4498C435.444 83.2498 435.244 82.9998 434.844 82.6998C434.444 82.3998 434.094 81.9498 433.794 81.3498C433.494 80.7498 433.344 80.3498 433.344 80.1498C433.344 79.5498 433.544 79.0998 433.944 78.7998H434.244C434.244 78.5998 434.144 78.4998 433.944 78.4998L433.644 77.8998C433.644 77.6998 433.794 77.5498 434.094 77.4498C434.394 77.3498 434.544 77.1998 434.544 76.9998C433.944 76.3998 433.644 75.9998 433.644 75.7998C433.844 75.7998 434.044 75.1498 434.244 73.8498C434.244 73.4498 433.844 72.0498 433.044 69.6498L433.344 68.8998L433.044 68.5998C433.344 68.3998 433.494 68.0498 433.494 67.5498C433.494 67.2498 433.344 66.9998 433.044 66.7998L432.744 65.8998L433.044 64.0998C433.044 63.5998 432.944 62.9998 432.744 62.2998C432.544 61.5998 432.444 60.8498 432.444 60.0498C432.144 60.2498 431.994 60.7498 431.994 61.5498C431.394 61.9498 430.944 62.1498 430.644 62.1498C430.344 62.1498 429.894 62.2998 429.294 62.5998C428.594 62.5998 427.894 62.2498 427.194 61.5498L427.494 60.9498H427.194C426.994 61.1498 426.844 61.3498 426.744 61.5498C426.744 61.7498 426.644 61.8998 426.444 61.9998C426.244 62.0998 426.044 62.2498 425.844 62.4498C425.044 63.2498 424.144 63.6498 423.144 63.6498C423.144 63.4498 423.044 63.3498 422.844 63.3498C422.544 63.3498 421.194 63.8998 418.794 64.9998C417.394 64.9998 416.144 65.8998 415.044 67.6998C413.844 68.0998 413.244 68.9998 413.244 70.3998C413.244 71.6998 413.144 72.4498 412.944 72.6498C412.744 72.8498 412.644 73.0498 412.644 73.2498C412.844 73.6498 412.944 74.3998 412.944 75.4998C412.944 77.4998 412.644 78.4998 412.044 78.4998C412.044 79.9998 412.344 81.0498 412.944 81.6498C412.944 83.7498 412.544 84.7998 411.744 84.7998C409.644 84.1998 408.394 83.7498 407.994 83.4498H407.394C406.494 83.9498 406.044 84.2998 406.044 84.4998C405.444 84.4998 405.044 84.2498 404.844 83.7498C404.644 83.1498 404.444 82.5498 404.244 81.9498C404.044 81.3498 403.844 80.8498 403.644 80.4498V80.7498C403.444 80.9498 403.344 81.1498 403.344 81.3498C403.344 81.5498 403.244 81.8498 403.044 82.2498C402.844 82.6498 402.694 83.0498 402.594 83.4498C402.494 83.8498 402.244 84.0498 401.844 84.0498L399.594 83.4498C399.194 83.4498 398.894 83.6498 398.694 84.0498H398.094L397.794 84.3498C397.594 84.3498 397.444 84.2498 397.344 84.0498C397.244 83.8498 397.044 83.5998 396.744 83.2998C396.444 82.9998 396.294 81.6498 396.294 79.2498L396.594 78.4998V76.6998C396.794 76.4998 396.894 76.1998 396.894 75.7998L396.594 75.1998H396.294C396.294 74.6998 396.494 74.2998 396.894 73.9998L396.594 70.5498C396.594 69.9498 396.994 69.2998 397.794 68.5998V67.9998C397.494 67.9998 397.244 67.5498 397.044 66.6498C397.044 66.4498 397.194 66.1998 397.494 65.8998C397.694 65.8998 397.794 65.5998 397.794 64.9998C397.594 64.9998 397.494 64.7998 397.494 64.3998H398.094V63.6498C397.894 63.4498 397.794 63.1998 397.794 62.8998C397.794 62.5998 397.694 62.4498 397.494 62.4498L398.094 61.2498C397.894 60.8498 397.694 59.7998 397.494 58.0998L397.794 57.1998L397.494 56.5998L397.794 55.3998C397.794 54.0998 397.494 52.8498 396.894 51.6498L396.744 49.0998L397.194 46.9998C396.894 46.5998 396.744 46.0998 396.744 45.4998C396.844 44.3998 396.994 43.4498 397.194 42.6498C397.394 41.8498 397.494 40.9498 397.494 39.9498C397.294 39.9498 397.044 39.5498 396.744 38.7498L396.894 38.1498C396.894 37.4498 396.794 36.7998 396.594 36.1998V35.2998C396.794 35.2998 396.894 35.1998 396.894 34.9998L396.594 34.3998V32.8998C395.794 32.8998 395.394 32.4998 395.394 31.6998C395.394 31.1998 395.994 30.6498 397.194 30.0498C397.794 30.0498 398.494 29.8498 399.294 29.4498H399.594L398.094 27.9498V26.5998C398.494 26.5998 398.744 26.4998 398.844 26.2998C398.944 26.0998 399.394 25.9998 400.194 25.9998C401.694 25.9998 402.644 26.1498 403.044 26.4498C403.444 26.7498 403.744 26.8998 403.944 26.8998C404.744 27.5998 405.544 27.9498 406.344 27.9498C407.244 27.9498 407.794 28.0498 407.994 28.2498C408.594 29.4498 408.994 30.0998 409.194 30.1998C410.394 30.7998 411.144 31.5498 411.444 32.4498C412.244 32.4498 412.694 32.6998 412.794 33.1998C412.894 33.5998 413.044 33.8998 413.244 34.0998C413.444 34.2998 413.644 34.5998 413.844 34.9998C413.844 36.8998 413.944 37.9998 414.144 38.2998C414.344 38.5998 414.544 39.0498 414.744 39.6498C414.544 39.6498 414.444 39.7998 414.444 40.0998C414.244 41.5998 414.044 42.4998 413.844 42.7998C413.644 43.0998 413.544 43.4998 413.544 43.9998C413.644 44.3998 413.744 44.7498 413.844 45.0498C414.044 45.3498 414.144 45.9998 414.144 46.9998C414.144 47.5998 414.444 47.8998 415.044 47.8998C415.644 47.7998 416.194 47.4998 416.694 46.9998C419.494 45.9998 421.194 44.9998 421.794 43.9998C423.494 43.9998 424.594 43.8998 425.094 43.6998C425.594 42.9998 426.994 42.6498 429.294 42.6498C429.994 42.5498 430.794 42.0498 431.694 41.1498C431.894 41.1498 432.544 40.5498 433.644 39.3498L433.344 39.0498V38.4498H433.644C433.644 37.7498 433.744 37.1998 433.944 36.7998C433.944 34.5998 434.344 31.6498 435.144 27.9498L434.844 26.8998L435.144 25.6998L434.844 25.3998V24.4998H436.044C436.244 24.2998 436.494 24.1998 436.794 24.1998C437.094 24.1998 437.294 24.0998 437.394 23.8998V23.2998H439.194L439.794 22.9998C439.794 23.3998 440.394 23.5998 441.594 23.5998C441.994 23.5998 442.344 23.2998 442.644 22.6998H443.244C443.244 23.4998 443.494 23.9498 443.994 24.0498C444.494 24.1498 444.794 24.3498 444.894 24.6498C444.994 24.9498 445.244 25.4998 445.644 26.2998H446.844L447.444 26.8998V28.2498C448.744 29.1498 449.394 30.5498 449.394 32.4498C449.394 33.3498 449.294 34.0998 449.094 34.6998V35.5998C448.294 36.3998 447.894 37.6498 447.894 39.3498L447.444 41.1498C447.444 42.8498 447.144 44.5998 446.544 46.3998V47.5998L446.244 48.0498C446.244 48.2498 446.344 48.3498 446.544 48.3498V48.9498C446.744 48.9498 446.844 49.0498 446.844 49.2498C446.344 50.2498 446.094 52.5498 446.094 56.1498C446.094 56.9498 446.194 57.5498 446.394 57.9498C446.694 58.3498 446.844 58.7498 446.844 59.1498L446.544 60.9498C446.344 60.9498 446.244 61.3498 446.244 62.1498L446.544 64.9998C446.544 67.1998 446.344 68.4998 445.944 68.8998V72.6498C445.344 73.8498 445.044 76.6498 445.044 81.0498C445.044 81.2498 444.844 81.3498 444.444 81.3498L443.844 81.9498L444.144 82.8498C444.144 83.0498 443.894 83.1998 443.394 83.2998C442.894 83.3998 442.294 83.6498 441.594 84.0498C440.994 84.3498 440.494 84.5998 440.094 84.7998C439.694 84.9998 439.294 85.2998 438.894 85.6998C438.494 86.0998 437.944 86.2998 437.244 86.2998ZM396.894 135.95C395.794 135.95 395.244 135.55 395.244 134.75C395.444 134.55 395.544 134.15 395.544 133.55C394.144 133.55 393.244 133.35 392.844 132.95H391.944C391.544 133.15 391.244 133.45 391.044 133.85C391.444 134.05 391.744 134.15 391.944 134.15C392.144 134.15 392.244 134.35 392.244 134.75C392.044 135.35 391.744 135.65 391.344 135.65L390.294 135.05C389.294 135.05 388.694 134.95 388.494 134.75C388.494 134.55 388.694 134.45 389.094 134.45C389.594 134.45 389.994 134.35 390.294 134.15C390.594 133.95 390.744 133.75 390.744 133.55L389.994 132.95H388.494L386.994 133.85H385.344C385.344 133.25 385.494 132.85 385.794 132.65H386.994L387.294 132.05L386.994 131.75C387.194 131.75 387.294 131.65 387.294 131.45L386.694 131.3C386.494 131.6 386.194 131.75 385.794 131.75C385.594 131.55 385.494 131.3 385.494 131H384.444C384.444 130.4 384.144 129.95 383.544 129.65C382.944 129.35 382.444 129 382.044 128.6V128L381.444 128.3H380.244V128L381.144 127.7C381.144 127.5 380.844 127.35 380.244 127.25C379.744 127.15 379.494 126.45 379.494 125.15L377.094 122.45C377.094 121.85 377.294 121.45 377.694 121.25C377.694 120.85 377.594 120.6 377.394 120.5C377.194 120.3 376.894 120 376.494 119.6L376.794 119C376.594 118.4 376.294 116.05 375.894 111.95C376.094 111.55 376.194 111.05 376.194 110.45C376.194 108.65 376.694 107.4 377.694 106.7C378.294 106.7 378.644 106.4 378.744 105.8C378.844 105.1 379.094 104.7 379.494 104.6C379.894 104.5 380.094 104.25 380.094 103.85C380.194 103.45 380.344 103.15 380.544 102.95C381.944 102.95 382.644 102.65 382.644 102.05C383.544 101.65 384.444 101.05 385.344 100.25L388.794 98.5998C388.994 98.1998 389.294 97.9998 389.694 97.9998C392.494 97.4998 394.794 96.4998 396.594 94.9998C397.394 94.2998 398.044 93.7998 398.544 93.4998C399.044 93.1998 399.294 92.9498 399.294 92.7498C399.294 92.5498 399.494 92.2498 399.894 91.8498C400.994 91.8498 401.894 92.1498 402.594 92.7498C403.294 93.3498 404.044 93.6998 404.844 93.7998C405.744 93.8998 406.194 94.2498 406.194 94.8498H406.794V94.9998H407.694C407.694 95.3998 408.094 95.5998 408.894 95.5998C408.894 96.3998 408.994 96.8998 409.194 97.0998V97.9998C409.594 98.3998 409.844 98.8498 409.944 99.3498C410.044 99.8498 410.194 100.15 410.394 100.25V100.85C409.994 101.25 409.694 101.65 409.494 102.05H409.794C409.794 102.25 410.094 102.35 410.694 102.35L411.444 101.75H411.294L410.694 101.15L411.294 100.85C411.394 101.05 411.444 101.2 411.444 101.3C411.444 101.4 411.644 101.55 412.044 101.75L411.294 102.35C411.294 102.75 411.644 103.35 412.344 104.15C413.144 104.95 413.744 105.35 414.144 105.35C414.344 105.35 414.444 105.15 414.444 104.75L412.344 102.65V102.35C412.544 102.35 412.694 102.4 412.794 102.5C413.694 103.4 414.444 103.95 415.044 104.15C415.644 104.35 416.094 104.8 416.394 105.5C416.794 106.1 417.294 106.6 417.894 107H418.494L419.094 108.2V108.8C419.394 109.2 419.594 109.55 419.694 109.85C419.894 110.15 420.094 110.3 420.294 110.3V110.75L421.194 111.95C421.194 113.75 421.394 115 421.794 115.7C421.394 118.7 420.394 121.55 418.794 124.25C418.094 124.75 417.344 125.8 416.544 127.4C416.544 128.2 415.544 129.55 413.544 131.45C411.644 132.25 409.594 132.7 407.394 132.8C405.294 132.9 403.344 133.45 401.544 134.45C400.844 134.85 399.994 135.15 398.994 135.35C398.594 135.35 398.394 135.25 398.394 135.05C398.394 134.85 398.594 134.65 398.994 134.45C399.394 134.25 399.694 134.15 399.894 134.15C400.094 134.15 400.194 134.05 400.194 133.85L399.894 133.55L399.294 133.85H398.094L397.494 134.45C397.494 135.45 397.294 135.95 396.894 135.95ZM363.744 46.0998C363.144 46.0998 362.644 45.9998 362.244 45.7998C361.844 45.5998 361.344 45.4998 360.744 45.4998C360.144 45.4998 359.544 45.4498 358.944 45.3498C358.444 45.2498 357.944 45.1998 357.444 45.1998C356.344 44.6998 355.344 44.4498 354.444 44.4498C354.144 44.4498 353.744 44.5498 353.244 44.7498C352.844 44.9498 352.144 45.0498 351.144 45.0498C348.044 45.0498 345.644 44.6998 343.944 43.9998C343.544 43.7998 341.944 43.6998 339.144 43.6998C338.444 43.8998 337.594 43.9998 336.594 43.9998C335.594 43.9998 333.944 44.5998 331.644 45.7998L327.894 46.0998C326.894 46.0998 326.144 45.8998 325.644 45.4998C325.144 45.0998 324.644 44.8498 324.144 44.7498C323.644 44.6498 323.194 44.3998 322.794 43.9998C322.794 43.3998 322.744 42.9498 322.644 42.6498C321.744 42.6498 321.144 42.3498 320.844 41.7498C320.644 41.1498 320.344 40.6498 319.944 40.2498C318.944 39.0498 318.094 37.7998 317.394 36.4998C317.394 35.2998 316.744 34.6998 315.444 34.6998L315.894 33.1998C315.494 32.7998 315.244 32.5998 315.144 32.5998C315.044 32.5998 314.994 32.5498 314.994 32.4498L315.444 31.2498L315.144 30.3498C315.144 30.1498 315.894 29.9498 317.394 29.7498C317.894 29.5498 318.394 29.3498 318.894 29.1498C319.494 28.8498 320.544 28.6498 322.044 28.5498C322.544 29.5498 323.044 30.0498 323.544 30.0498C324.444 30.0498 325.944 29.7498 328.044 29.1498L334.644 28.0998L336.894 28.2498C337.094 28.0498 337.594 27.9498 338.394 27.9498C339.294 27.9498 339.894 28.0498 340.194 28.2498C340.494 28.4498 341.344 28.5498 342.744 28.5498C345.444 28.5498 347.144 28.6998 347.844 28.9998C348.544 29.2998 349.144 29.4498 349.644 29.4498L350.544 29.1498L353.544 29.8998C353.844 29.8998 354.194 29.7498 354.594 29.4498C354.994 29.1498 355.394 28.9998 355.794 28.9998C358.394 29.8998 361.094 30.3498 363.894 30.3498L364.494 31.2498C365.094 31.2498 365.544 31.0998 365.844 30.7998C366.144 30.4998 366.494 30.3498 366.894 30.3498C367.094 30.3498 367.394 30.7498 367.794 31.5498L368.094 31.3998C368.294 31.3998 368.494 31.4998 368.694 31.6998C368.994 31.8998 369.444 31.9998 370.044 31.9998L370.644 31.8498C371.644 31.8498 372.344 32.0498 372.744 32.4498C373.144 32.7498 373.644 32.9498 374.244 33.0498C374.944 33.1498 375.294 33.9998 375.294 35.5998C375.294 36.5998 375.044 37.3498 374.544 37.8498C373.944 39.6498 373.644 41.0498 373.644 42.0498C373.644 42.9498 372.444 43.7498 370.044 44.4498C368.744 44.9498 367.794 45.1998 367.194 45.1998C367.194 45.3998 367.094 45.4998 366.894 45.4998L365.844 45.3498L363.744 46.0998ZM349.344 91.8498C348.344 91.8498 347.094 91.5498 345.594 90.9498C345.594 90.7498 345.494 90.6498 345.294 90.6498C343.994 90.2498 343.244 89.8998 343.044 89.5998C342.844 89.1998 342.544 88.8998 342.144 88.6998C340.944 88.0998 340.144 87.3998 339.744 86.5998C339.344 85.6998 338.844 85.0998 338.244 84.7998C337.644 84.3998 337.194 83.7998 336.894 82.9998C336.594 82.1998 336.194 81.5498 335.694 81.0498L335.994 79.5498C335.394 78.3498 335.044 77.2498 334.944 76.2498C334.944 75.9498 335.044 75.6498 335.244 75.3498C335.544 75.0498 335.794 74.5998 335.994 73.9998C335.994 71.2998 336.594 69.7498 337.794 69.3498C337.794 67.7498 339.444 65.6498 342.744 63.0498L343.344 62.7498H344.394L344.094 61.8498C344.094 61.6498 344.294 61.4498 344.694 61.2498H344.994C345.794 60.6498 346.444 59.9498 346.944 59.1498C347.444 58.3498 348.344 57.4998 349.644 56.5998C351.044 55.5998 352.144 54.4998 352.944 53.2998L356.094 50.7498C356.794 49.7498 357.694 49.0498 358.794 48.6498C359.094 48.6498 359.544 48.3998 360.144 47.8998H360.444C361.644 48.3998 362.244 49.5498 362.244 51.3498C362.244 52.5498 361.544 53.7998 360.144 55.0998C359.544 55.3998 359.144 55.7998 358.944 56.2998C358.844 56.6998 358.694 56.9998 358.494 57.1998C357.894 57.7998 357.594 58.1998 357.594 58.3998C357.594 59.0998 358.094 59.4498 359.094 59.4498V58.3998H359.244C359.244 58.1998 359.744 58.0998 360.744 58.0998C361.344 58.0998 361.694 58.2498 361.794 58.5498C361.894 58.7498 362.094 58.8998 362.394 58.9998C362.694 59.0998 363.144 59.1498 363.744 59.1498C364.444 59.1498 365.194 59.5498 365.994 60.3498C366.194 60.5498 366.444 60.7498 366.744 60.9498C367.044 61.1498 367.544 61.5498 368.244 62.1498C368.944 62.7498 369.694 63.9498 370.494 65.7498C371.394 67.4498 371.844 68.3998 371.844 68.5998L371.394 69.6498C371.494 70.0498 371.844 70.3998 372.444 70.6998C373.044 70.9998 373.344 71.4498 373.344 72.0498C372.744 72.2498 372.444 72.4498 372.444 72.6498C372.444 73.2498 372.544 73.6498 372.744 73.8498V73.9998L371.544 74.8998C371.744 75.0998 371.844 75.3998 371.844 75.7998L371.544 76.6998C371.544 77.8998 371.344 78.5998 370.944 78.7998C370.544 78.8998 370.194 79.2498 369.894 79.8498C369.694 80.4498 369.444 80.7998 369.144 80.8998C368.844 80.8998 368.394 81.1498 367.794 81.6498C367.394 82.4498 366.794 82.8498 365.994 82.8498C365.994 84.5498 364.644 85.9998 361.944 87.1998C361.744 87.5998 361.244 87.8998 360.444 88.0998C359.644 88.1998 358.944 88.5998 358.344 89.2998C357.844 89.9998 356.794 90.7498 355.194 91.5498H353.244C353.044 91.3498 352.744 91.2498 352.344 91.2498C351.944 91.2498 351.494 91.3498 350.994 91.5498C350.494 91.7498 349.944 91.8498 349.344 91.8498ZM359.094 21.9498H358.194C356.594 21.1498 355.644 20.3998 355.344 19.6998C355.144 18.8998 354.544 18.2498 353.544 17.7498C351.844 16.7498 350.444 15.7998 349.344 14.8998C348.244 13.8998 347.044 13.2498 345.744 12.9498C344.444 12.6498 343.144 12.2998 341.844 11.8998C341.844 11.5998 341.144 11.4498 339.744 11.4498C339.144 11.4498 338.694 11.3998 338.394 11.2998C338.194 11.1998 337.894 11.0998 337.494 10.9998C337.094 10.8998 336.594 10.5498 335.994 9.9498L332.544 10.5498C331.744 10.3498 331.194 9.79981 330.894 8.89981C330.594 7.99981 330.394 7.1998 330.294 6.4998C330.194 5.69981 330.044 5.09981 329.844 4.69981C330.244 3.89981 331.594 3.19981 333.894 2.59981C334.594 2.59981 335.194 2.39981 335.694 1.99981C338.094 1.09981 339.844 0.649805 340.944 0.649805C342.144 0.649805 342.894 0.549807 343.194 0.34981C343.594 0.149806 343.994 0.0498047 344.394 0.0498047C345.194 0.0498047 345.644 0.299803 345.744 0.799803C345.844 1.1998 346.194 1.4998 346.794 1.6998L348.594 1.39981C349.894 1.39981 350.844 1.4998 351.444 1.6998L356.694 3.49981C357.894 4.0998 359.344 4.3998 361.044 4.3998L361.344 4.69981L361.044 4.9998C361.344 5.79981 361.744 6.2998 362.244 6.4998C362.844 6.59981 363.194 6.79981 363.294 7.0998C363.394 7.39981 363.694 7.6498 364.194 7.8498C364.794 7.94981 365.144 8.34981 365.244 9.04981C365.344 9.6498 365.694 9.9498 366.294 9.9498C366.894 9.9498 367.194 10.2498 367.194 10.8498C367.194 11.8498 367.444 12.5498 367.944 12.9498C368.444 13.2498 368.694 13.6998 368.694 14.2998C368.694 14.6998 368.494 15.0998 368.094 15.4998C367.394 16.1998 367.044 16.6998 367.044 16.9998L367.494 18.9498L366.594 20.1498C365.994 20.1498 365.594 20.2498 365.394 20.4498C365.194 20.6498 364.844 20.7998 364.344 20.8998C363.944 20.9998 363.594 21.1498 363.294 21.3498C362.994 21.5498 362.444 21.6498 361.644 21.6498C361.444 21.4498 360.944 21.3498 360.144 21.3498L359.094 21.9498Z" fill="black"/>
<path d="M267.197 132.35C265.797 132.35 264.547 132.1 263.447 131.6C262.447 131.2 261.347 131 260.147 131C258.947 131 257.697 130.3 256.397 128.9L253.397 127.4C253.397 127 253.297 126.8 253.097 126.8C252.997 126.8 252.747 126.6 252.347 126.2V125.15L249.947 124.55C249.747 123.95 249.447 123.4 249.047 122.9C248.647 122.4 248.397 121.95 248.297 121.55C248.197 121.05 248.047 120.7 247.847 120.5C247.747 120.3 247.697 120.1 247.697 119.9C247.697 119.7 247.597 119.6 247.397 119.6L247.097 119L247.397 118.7L247.097 118.1V117.2L245.897 114.95C245.897 113.75 245.997 112.75 246.197 111.95C245.997 111.75 245.897 111.55 245.897 111.35C245.897 111.15 245.797 110.75 245.597 110.15C245.597 107.45 246.097 105.85 247.097 105.35C247.097 104.65 247.247 104.05 247.547 103.55C247.947 102.95 248.297 102.35 248.597 101.75C248.897 101.15 249.297 100.7 249.797 100.4C250.397 100 250.747 99.65 250.847 99.35C251.047 99.05 252.397 97.6 254.897 95C255.697 94.3 256.597 93.95 257.597 93.95C258.297 93.55 259.047 93.35 259.847 93.35C260.647 93.35 261.097 93.25 261.197 93.05C261.297 92.85 261.547 92.7 261.947 92.6C262.347 92.5 262.547 92.35 262.547 92.15C263.447 91.95 264.297 91.45 265.097 90.65C266.797 90.65 267.847 90.4 268.247 89.9C268.747 89.3 269.147 88.8 269.447 88.4C270.647 88.4 271.297 88.15 271.397 87.65C271.597 87.05 271.897 86.75 272.297 86.75C272.497 86.75 272.747 86.85 273.047 87.05C273.447 87.15 273.947 87.6 274.547 88.4C275.247 89.2 275.797 90.25 276.197 91.55L277.097 93.35L276.797 94.55C276.797 95.85 277.197 96.7 277.997 97.1L281.147 97.7L283.247 99.8C285.547 100.9 286.897 101.8 287.297 102.5C287.697 103.2 287.897 104.3 287.897 105.8C288.997 107.6 289.547 110.35 289.547 114.05C289.547 115.15 288.697 117 286.997 119.6C286.797 120.5 286.397 121.15 285.797 121.55C285.197 121.95 284.647 122.45 284.147 123.05C283.747 123.65 282.347 124.65 279.947 126.05C277.647 127.35 276.097 128.4 275.297 129.2C274.497 129.2 273.847 129.45 273.347 129.95C272.947 130.45 272.547 130.75 272.147 130.85C271.747 130.95 271.297 131.05 270.797 131.15C270.297 131.25 269.747 131.45 269.147 131.75C268.647 132.15 267.997 132.35 267.197 132.35ZM266.597 119.9C267.797 119.7 268.747 119.6 269.447 119.6C270.247 119.6 271.097 119.25 271.997 118.55C272.897 117.85 273.497 117.1 273.797 116.3C275.297 115 276.047 113.6 276.047 112.1C276.047 111.2 275.797 110.3 275.297 109.4C274.197 107.7 273.297 106.75 272.597 106.55C271.897 106.25 271.397 105.95 271.097 105.65C270.797 105.25 270.297 104.9 269.597 104.6C268.897 104.3 267.397 104.15 265.097 104.15C264.297 103.15 263.347 102.65 262.247 102.65C260.647 103.25 259.647 104.4 259.247 106.1C258.447 106.5 257.897 107.25 257.597 108.35L257.897 108.2H257.597L258.047 113.45C258.347 114.65 258.647 115.25 258.947 115.25C259.347 115.25 259.647 115.35 259.847 115.55C259.847 116.55 260.247 117.25 261.047 117.65C261.847 117.95 262.447 118.35 262.847 118.85C263.347 119.35 263.847 119.65 264.347 119.75C264.847 119.85 265.597 119.9 266.597 119.9ZM259.847 20.3C259.247 20.3 258.947 20.15 258.947 19.85H258.647L258.347 19.25L256.097 19.55L242.897 16.7C241.197 16.7 239.747 16.85 238.547 17.15C238.147 17.35 237.297 17.45 235.997 17.45C235.597 17.85 235.197 18.05 234.797 18.05C234.197 18.05 233.647 17.95 233.147 17.75C232.647 17.55 232.247 17.45 231.947 17.45L231.047 17.75C230.247 17.75 229.647 17.55 229.247 17.15C228.847 16.65 228.197 16.4 227.297 16.4C226.497 16.4 226.097 16.1 226.097 15.5C225.697 15.2 225.447 14.9 225.347 14.6C225.247 14.2 224.997 13.9 224.597 13.7C224.597 11.6 224.997 9.65 225.797 7.85C226.097 7.15 226.347 6.45 226.547 5.75C226.747 5.05 227.047 4.5 227.447 4.1C227.847 3.7 229.597 3.5 232.697 3.5C233.897 3.7 235.197 3.8 236.597 3.8C238.697 3.8 240.347 3.9 241.547 4.1C244.447 4.1 246.147 4.2 246.647 4.4C247.147 4.6 248.947 4.7 252.047 4.7C252.547 5.3 253.297 5.6 254.297 5.6C255.297 5.6 255.997 5.75 256.397 6.05C256.897 6.25 258.147 6.35 260.147 6.35C260.947 7.15 261.997 7.55 263.297 7.55C263.697 7.55 264.497 7.75 265.697 8.15C265.897 8.75 266.397 9.05 267.197 9.05C267.997 9.05 268.947 9.45 270.047 10.25C272.247 10.95 273.347 11.5 273.347 11.9C273.347 13 272.547 14.1 270.947 15.2C270.147 16 269.597 16.45 269.297 16.55C268.997 16.65 268.747 16.75 268.547 16.85C268.447 16.85 268.397 17.05 268.397 17.45C267.397 18.45 266.647 18.95 266.147 18.95C265.647 18.95 265.197 19.15 264.797 19.55C263.697 19.95 262.847 20.15 262.247 20.15L261.347 19.85C261.147 20.05 260.647 20.2 259.847 20.3ZM223.697 95C223.497 95 223.397 94.95 223.397 94.85C221.097 94.35 219.947 93.25 219.947 91.55V89.75C219.347 89.25 219.047 88.9 219.047 88.7C219.747 88.4 220.247 88.1 220.547 87.8H220.847C220.847 86.8 220.947 86.1 221.147 85.7V84.35C222.047 83.35 222.497 82.55 222.497 81.95L222.197 81.35C222.197 80.75 222.997 80.15 224.597 79.55C226.497 79.55 228.547 78.8 230.747 77.3C233.047 76.5 235.247 75.4 237.347 74C239.447 73.4 240.747 72.85 241.247 72.35C242.947 71.95 244.447 71.3 245.747 70.4C247.047 69.5 248.347 69 249.647 68.9C251.247 67.5 252.047 65.75 252.047 63.65C252.047 61.05 251.347 58.4 249.947 55.7C249.247 52.6 248.497 51.05 247.697 51.05C242.197 51.65 239.297 52.1 238.997 52.4C238.697 52.7 238.347 52.85 237.947 52.85C236.847 52.85 235.497 53.2 233.897 53.9C233.097 54.3 232.397 54.55 231.797 54.65C231.297 54.75 230.547 54.9 229.547 55.1C228.547 55.3 227.597 55.4 226.697 55.4C225.397 55.4 224.397 54.15 223.697 51.65L223.997 51.05C223.797 51.05 223.697 50.75 223.697 50.15L223.997 49.55C223.597 48.95 223.397 48.3 223.397 47.6L223.097 47L223.397 46.4C223.997 44.6 224.397 43.6 224.597 43.4C225.597 43 226.097 42.05 226.097 40.55C226.297 40.15 226.497 39.8 226.697 39.5C226.997 39.2 227.347 38.85 227.747 38.45C227.747 37.85 227.847 37.5 228.047 37.4V37.1C228.647 36.7 229.047 36.2 229.247 35.6C229.447 35 229.797 34.45 230.297 33.95C230.797 33.45 231.097 32.95 231.197 32.45C231.297 31.85 231.547 31.35 231.947 30.95C232.447 30.55 232.747 30.05 232.847 29.45C232.947 28.85 233.147 28.4 233.447 28.1C233.747 27.8 234.047 27.35 234.347 26.75C234.647 26.05 234.847 25.5 234.947 25.1C235.047 24.7 235.247 24.5 235.547 24.5C235.847 24.5 236.097 24.4 236.297 24.2H236.897C237.197 22.7 237.847 21.95 238.847 21.95C239.447 21.95 240.047 22.2 240.647 22.7C240.647 23.5 240.947 23.9 241.547 23.9C242.247 23.9 242.747 24.45 243.047 25.55L243.797 26.6C243.797 27.5 243.997 28.35 244.397 29.15V30.05L243.197 30.95C242.297 32.85 241.347 34.3 240.347 35.3C239.747 35.3 239.447 35.7 239.447 36.5C239.047 36.9 238.847 37.35 238.847 37.85L239.747 38.15C240.147 38.15 240.497 38.05 240.797 37.85C241.097 37.65 242.097 37.55 243.797 37.55C244.397 37.25 244.997 37.1 245.597 37.1C247.097 36.3 248.747 35.9 250.547 35.9C250.947 35.9 251.247 36 251.447 36.2C252.247 36.2 252.847 36.1 253.247 35.9C253.747 35.7 254.197 35.6 254.597 35.6L256.097 36.05C256.597 36.05 257.097 35.8 257.597 35.3L259.847 35.6C260.447 35.4 261.147 35.3 261.947 35.3C262.847 35.3 263.797 35.2 264.797 35L265.097 34.7L266.897 35.6C267.497 35.6 267.897 35.55 268.097 35.45C268.697 35.15 269.447 35 270.347 35C271.547 35.3 273.097 35.55 274.997 35.75C275.997 35.85 276.897 36 277.697 36.2C278.597 36.4 279.447 36.5 280.247 36.5C281.247 36.5 282.247 36.4 283.247 36.2C284.347 36 285.597 35.9 286.997 35.9C294.197 35.9 298.947 36.75 301.247 38.45V38.75L300.347 39.95C300.347 40.15 300.447 40.3 300.647 40.4C300.847 40.5 300.947 40.65 300.947 40.85C300.947 41.45 300.547 41.75 299.747 41.75C299.047 41.75 298.697 42.1 298.697 42.8C298.697 43 298.597 43.2 298.397 43.4C298.097 44.4 297.197 44.9 295.697 44.9C295.097 44.9 294.647 45.1 294.347 45.5C293.547 45.5 293.147 46.1 293.147 47.3C292.947 47.7 292.747 48.05 292.547 48.35C292.347 48.55 291.447 48.65 289.847 48.65C288.347 48.65 287.197 48.85 286.397 49.25L285.197 48.65C284.597 48.75 284.147 48.95 283.847 49.25H282.047C282.047 49.05 281.947 48.95 281.747 48.95V49.25L280.247 49.55L279.047 49.25C278.747 49.25 278.447 49.35 278.147 49.55C277.847 49.75 277.247 49.85 276.347 49.85C274.347 49.85 273.347 50.35 273.347 51.35V52.85C273.147 53.15 272.897 53.45 272.597 53.75C272.297 54.05 272.147 54.5 272.147 55.1C272.147 57.3 272.547 59.15 273.347 60.65L273.047 62.45C273.047 63.75 273.397 64.8 274.097 65.6L275.897 65C276.097 65 276.197 65.1 276.197 65.3L277.997 65.6C278.397 65.2 278.847 65 279.347 65L283.547 65.6C286.847 65.6 288.847 65.7 289.547 65.9C290.347 66.1 291.147 66.2 291.947 66.2C293.147 66.2 293.847 66.1 294.047 65.9L294.797 66.5C294.997 66.3 295.497 66.2 296.297 66.2L296.897 66.5C297.297 66.5 297.647 66.25 297.947 65.75C298.247 65.25 298.597 65 298.997 65C299.397 65.4 300.147 65.6 301.247 65.6L301.847 65.3L302.447 65.6H303.947L304.847 66.2C305.147 66 305.697 65.9 306.497 65.9C307.197 65.9 307.797 66.3 308.297 67.1C308.897 67.8 309.847 68.45 311.147 69.05C311.547 69.25 311.797 69.6 311.897 70.1C311.997 70.6 312.247 71.05 312.647 71.45L311.747 72.95C311.447 74.15 311.047 75.05 310.547 75.65C310.047 76.15 309.697 76.55 309.497 76.85C309.297 77.15 309.197 77.4 309.197 77.6L309.497 78.2V79.25C309.097 79.45 308.697 79.55 308.297 79.55C307.897 79.55 307.647 79.7 307.547 80C307.447 80.3 307.247 80.5 306.947 80.6C306.647 80.7 306.347 80.85 306.047 81.05C305.747 81.25 305.547 81.35 305.447 81.35C305.347 81.35 305.197 81.6 304.997 82.1C304.897 82.6 304.647 82.95 304.247 83.15C303.847 83.35 303.547 83.55 303.347 83.75C303.347 84.15 303.247 84.35 303.047 84.35L301.547 84.05C300.947 84.05 300.447 84.25 300.047 84.65C299.747 84.95 299.397 85.2 298.997 85.4C298.597 85.4 297.947 85.25 297.047 84.95C296.147 84.65 294.547 84.5 292.247 84.5C290.947 84.5 289.797 84.25 288.797 83.75C283.497 83.75 279.097 83.45 275.597 82.85C274.397 82.45 272.947 82.25 271.247 82.25C270.647 82.45 269.697 82.55 268.397 82.55C267.997 82.35 267.497 82.25 266.897 82.25L258.647 83.75C257.947 83.75 257.197 83.65 256.397 83.45C255.597 83.25 254.497 83.15 253.097 83.15C252.397 83.35 251.597 83.45 250.697 83.45C249.797 83.45 248.847 83.55 247.847 83.75C246.947 83.95 245.847 84.05 244.547 84.05C243.247 84.05 241.547 84.8 239.447 86.3C237.147 87.5 235.597 88.4 234.797 89H234.197L232.997 90.05H231.947C231.747 90.25 231.447 90.45 231.047 90.65C230.647 90.85 230.447 91.05 230.447 91.25C229.247 92.45 228.197 93.05 227.297 93.05C226.497 93.05 225.897 93.45 225.497 94.25L223.697 95Z" fill="black"/>
<path d="M142.832 72.9502C143.232 72.9502 143.432 72.8502 143.432 72.6502C143.432 72.4502 143.132 72.3502 142.532 72.3502L142.832 72.9502ZM134.132 73.5502L136.982 72.3502C140.482 71.0502 142.232 69.9002 142.232 68.9002C142.332 64.1002 142.632 61.0502 143.132 59.7502C143.132 58.1502 143.432 56.9002 144.032 56.0002C144.232 55.8002 144.332 55.5002 144.332 55.1002C144.332 55.0002 144.232 54.8002 144.032 54.5002C143.832 54.2002 143.732 53.7502 143.732 53.1502L144.782 50.4502L144.632 49.5502C144.632 48.7502 144.832 48.0002 145.232 47.3002L145.382 46.5502C145.382 44.4502 144.832 43.4002 143.732 43.4002L142.232 43.8502L140.882 43.2502C140.482 43.6502 139.282 44.1002 137.282 44.6002C135.882 44.3002 134.032 44.1502 131.732 44.1502C129.532 44.8502 128.132 45.6002 127.532 46.4002C127.032 47.2002 126.782 48.4502 126.782 50.1502L127.232 51.8002L126.782 52.8502C126.782 53.4502 126.882 53.8502 127.082 54.0502C127.282 54.2502 127.482 54.6002 127.682 55.1002C127.482 55.3002 127.382 55.6002 127.382 56.0002C127.782 56.4002 127.982 56.7502 127.982 57.0502C127.982 57.3502 128.382 58.3002 129.182 59.9002C129.782 60.8002 130.532 63.4002 131.432 67.7002C132.032 68.5002 132.332 69.1002 132.332 69.5002C132.332 69.9002 132.382 70.2502 132.482 70.5502C132.582 70.7502 132.632 71.0002 132.632 71.3002C132.632 71.6002 132.732 71.8002 132.932 71.9002C133.132 72.0002 133.232 72.3502 133.232 72.9502L134.132 73.5502ZM150.482 72.5002L150.782 72.3502L150.482 72.5002ZM154.532 124.55C151.632 124.55 149.882 123.3 149.282 120.8C149.282 119.8 149.382 119.1 149.582 118.7C149.582 118.1 149.382 117.55 148.982 117.05C148.182 116.25 147.782 115.65 147.782 115.25C147.782 114.05 147.882 113.35 148.082 113.15L147.782 112.25C147.782 111.75 147.882 111.45 148.082 111.35C148.282 111.25 148.482 111.05 148.682 110.75C148.682 110.45 148.582 110.3 148.382 110.3C148.382 109.5 148.582 108.9 148.982 108.5C149.382 108.1 149.582 107.7 149.582 107.3C149.382 107.3 149.282 107.2 149.282 107C149.282 106.7 149.232 106.45 149.132 106.25L149.582 105.65C149.582 105.05 149.282 104.75 148.682 104.75C148.682 104.15 148.882 103.65 149.282 103.25C149.482 102.35 149.582 101.85 149.582 101.75C149.582 101.65 149.682 101.5 149.882 101.3C150.882 100.6 151.382 99.4002 151.382 97.7002C151.382 97.3002 151.282 97.0002 151.082 96.8002L151.982 94.5502C153.182 92.8502 153.882 91.4502 154.082 90.3502C154.382 89.2502 154.832 88.3002 155.432 87.5002V87.2002C156.032 86.1002 156.882 85.1502 157.982 84.3502C158.182 84.1502 158.432 83.8502 158.732 83.4502C159.032 83.0502 159.382 82.7502 159.782 82.5502L160.682 82.8502L163.232 85.2502C163.232 85.6502 162.582 86.5002 161.282 87.8002C160.282 88.1002 159.782 89.2002 159.782 91.1002C159.782 91.4002 159.382 92.7502 158.582 95.1502C158.382 95.5502 158.082 96.0502 157.682 96.6502C157.382 97.1502 157.232 97.8002 157.232 98.6002L157.682 101.6C157.682 103.8 158.182 105.05 159.182 105.35L159.782 105.65C160.782 105.65 162.032 105.15 163.532 104.15V103.85C164.332 103.85 164.832 103.8 165.032 103.7C165.232 103.6 165.532 103.5 165.932 103.4C166.332 103.3 166.732 103.15 167.132 102.95C168.232 102.95 169.032 102.8 169.532 102.5C170.032 102.1 170.682 101.8 171.482 101.6C173.682 101.3 174.882 101 175.082 100.7C175.382 100.3 175.732 100.05 176.132 99.9502C176.532 99.8502 176.882 99.7502 177.182 99.6502C177.482 99.5502 178.782 99.2002 181.082 98.6002C181.482 98.4002 181.732 98.2002 181.832 98.0002C182.032 97.7002 182.382 97.4002 182.882 97.1002C183.082 97.1002 183.182 97.2002 183.182 97.4002C183.682 97.4002 183.982 97.3002 184.082 97.1002C184.182 96.8002 184.432 96.6502 184.832 96.6502C185.332 96.5502 185.832 96.3502 186.332 96.0502C186.932 95.6502 187.332 95.3502 187.532 95.1502C187.732 94.9502 187.932 94.8502 188.132 94.8502L189.482 95.4502C189.682 95.2502 190.032 94.8002 190.532 94.1002C191.132 93.4002 192.032 93.0502 193.232 93.0502C194.432 93.0502 195.332 92.7502 195.932 92.1502C197.732 92.1502 198.732 92.0502 198.932 91.8502C199.232 91.5502 199.682 91.3002 200.282 91.1002C202.082 91.1002 203.182 91.0002 203.582 90.8002C203.982 90.6002 204.432 90.4002 204.932 90.2002C206.332 90.2002 207.432 90.0002 208.232 89.6002L211.082 89.9002L211.682 89.3002C214.582 89.3002 216.032 90.0002 216.032 91.4002C216.032 91.9002 215.732 92.7502 215.132 93.9502V97.1002L215.432 97.7002C215.432 98.5002 215.082 98.9002 214.382 98.9002C212.782 100.5 211.982 101.8 211.982 102.8C211.982 103.7 211.782 104.35 211.382 104.75C210.482 105.75 209.932 106.25 209.732 106.25C208.732 106.45 207.932 106.7 207.332 107C206.732 107.2 206.132 107.35 205.532 107.45C204.932 107.55 204.432 107.75 204.032 108.05C203.732 108.35 202.982 108.5 201.782 108.5C200.682 108.5 199.832 109 199.232 110H198.332L197.732 109.7L196.532 110C196.132 110.4 195.532 110.6 194.732 110.6C194.532 110.4 194.282 110.3 193.982 110.3L193.082 110.6C191.882 111.2 190.682 111.65 189.482 111.95C188.382 112.15 187.432 112.45 186.632 112.85C184.832 114.25 182.782 114.95 180.482 114.95C179.482 114.95 178.482 115.2 177.482 115.7C176.582 116.2 175.632 116.6 174.632 116.9C173.732 117.2 172.882 117.55 172.082 117.95C171.282 118.25 170.582 118.4 169.982 118.4C169.382 118.4 168.732 118.75 168.032 119.45C167.432 120.15 166.782 120.55 166.082 120.65C165.382 120.75 164.732 120.85 164.132 120.95C163.532 121.05 162.682 121.65 161.582 122.75C161.382 122.75 160.982 122.95 160.382 123.35C159.882 123.75 159.232 123.95 158.432 123.95C157.632 123.95 156.982 124.05 156.482 124.25C155.982 124.45 155.332 124.55 154.532 124.55ZM206.432 72.9502V72.6502H206.582L206.432 72.9502ZM193.682 82.8502H190.382C189.982 82.8502 189.782 82.5502 189.782 81.9502H189.482L189.182 81.3502V80.3002C189.382 80.3002 189.482 80.1502 189.482 79.8502C188.982 79.1502 188.732 78.4002 188.732 77.6002C188.732 76.3002 188.782 75.3502 188.882 74.7502L188.732 74.1502L189.482 71.1502C189.482 70.9502 189.382 70.7502 189.182 70.5502C188.982 70.3502 188.882 70.0502 188.882 69.6502C188.882 68.7502 189.082 67.8002 189.482 66.8002V64.2502C189.682 63.8502 189.782 63.2502 189.782 62.4502C189.582 62.2502 189.482 61.9502 189.482 61.5502C189.882 59.2502 190.082 57.2002 190.082 55.4002L190.382 54.3502L190.082 53.1502C190.082 51.7502 190.282 50.6502 190.682 49.8502L190.382 49.4002C190.382 48.8002 190.482 48.3002 190.682 47.9002C190.982 47.5002 191.182 47.1002 191.282 46.7002L190.982 46.1002C190.982 43.1002 191.382 40.9502 192.182 39.6502C192.382 38.9502 192.532 38.1002 192.632 37.1002C192.732 36.1002 193.032 34.8502 193.532 33.3502C194.032 31.8502 194.332 31.0502 194.432 30.9502C194.632 29.6502 195.032 28.4002 195.632 27.2002C196.832 26.0002 197.532 24.4502 197.732 22.5502L199.382 20.7502C199.882 19.8502 200.432 19.0502 201.032 18.3502C201.732 17.6502 202.232 16.9002 202.532 16.1002C202.832 15.3002 203.382 14.7002 204.182 14.3002C204.882 14.3002 205.232 13.8502 205.232 12.9502C205.232 11.9502 205.932 11.4502 207.332 11.4502C207.932 11.6502 208.382 11.8502 208.682 12.0502C208.982 12.2502 209.232 12.4002 209.432 12.5002C209.632 12.6002 209.982 12.8502 210.482 13.2502C210.482 13.7502 210.882 14.2002 211.682 14.6002L212.882 16.7002C213.482 18.8002 214.532 20.8502 216.032 22.8502L216.632 26.3002C216.432 26.7002 216.332 27.2002 216.332 27.8002C215.732 28.3002 215.282 28.9502 214.982 29.7502C214.382 32.1502 213.882 33.7002 213.482 34.4002C213.482 35.8002 213.082 37.1002 212.282 38.3002L212.582 39.2002C212.582 41.4002 212.382 43.0002 211.982 44.0002C211.582 44.9002 211.382 45.5002 211.382 45.8002L211.682 46.4002C211.382 48.0002 211.182 49.5502 211.082 51.0502C210.382 52.6502 209.932 53.9502 209.732 54.9502C209.632 55.8502 209.232 57.4002 208.532 59.6002L208.232 62.1502C207.832 62.5502 207.532 62.9502 207.332 63.3502C207.332 65.1502 207.132 66.1502 206.732 66.3502C206.332 66.4502 206.032 66.6002 205.832 66.8002L206.132 68.6002L205.832 69.8002C205.832 70.9002 205.682 71.6502 205.382 72.0502C205.082 72.4502 204.932 73.4502 204.932 75.0502C204.732 75.2502 204.632 75.5002 204.632 75.8002C204.632 77.0002 204.532 77.7002 204.332 77.9002C204.232 78.1002 204.182 78.3002 204.182 78.5002C204.182 78.7002 204.282 78.8002 204.482 78.8002C204.482 79.4002 204.382 79.8002 204.182 80.0002H202.082C201.882 79.8002 201.382 79.7002 200.582 79.7002C200.382 79.7002 200.282 80.1002 200.282 80.9002L198.632 80.6002L196.232 80.9002C196.032 80.7002 195.732 80.6002 195.332 80.6002C194.932 80.8002 194.632 81.1502 194.432 81.6502C194.232 82.0502 193.982 82.4502 193.682 82.8502ZM129.482 87.6502C129.182 87.6502 128.632 87.5502 127.832 87.3502C127.132 87.0502 126.532 86.8002 126.032 86.6002C125.632 86.4002 125.182 86.0502 124.682 85.5502C124.282 85.0502 124.032 84.8002 123.932 84.8002L123.632 84.9502C122.132 84.9502 120.832 83.9502 119.732 81.9502C118.632 79.9502 118.082 78.3002 118.082 77.0002C117.182 75.6002 116.732 74.1502 116.732 72.6502L116.882 70.8502C116.282 69.8502 115.982 68.4002 115.982 66.5002C115.682 65.9002 115.532 65.3002 115.532 64.7002C115.532 64.2002 115.632 63.7502 115.832 63.3502C115.832 62.7502 115.682 62.3002 115.382 62.0002C115.082 61.7002 114.832 61.3502 114.632 60.9502C114.632 60.5502 114.732 60.3002 114.932 60.2002V59.3002C114.732 58.9002 114.532 58.6002 114.332 58.4002C114.132 58.2002 114.032 58.0002 114.032 57.8002L114.182 57.2002L113.732 56.6002C113.732 54.7002 113.632 53.3502 113.432 52.5502C113.632 52.1502 113.732 50.8002 113.732 48.5002C113.732 47.1002 113.632 46.1002 113.432 45.5002L113.732 43.8502L113.432 43.4002L114.332 42.3502C114.732 39.2502 115.082 37.5002 115.382 37.1002C115.782 36.7002 116.082 36.3002 116.282 35.9002C116.282 34.1002 116.632 32.8502 117.332 32.1502C118.032 31.3502 118.582 30.5502 118.982 29.7502C118.982 29.2502 118.882 28.8502 118.682 28.5502C118.482 28.2502 118.382 27.9002 118.382 27.5002C118.382 26.5002 118.782 26.0002 119.582 26.0002C120.682 26.0002 121.432 26.4002 121.832 27.2002C122.632 27.2002 123.232 27.5502 123.632 28.2502C124.032 28.8502 124.432 29.4502 124.832 30.0502L124.532 31.2502C124.532 32.1502 124.682 33.0502 124.982 33.9502C125.382 34.8502 125.882 35.3002 126.482 35.3002C128.482 35.3002 129.932 35.1002 130.832 34.7002C131.832 34.3002 132.682 34.0502 133.382 33.9502C134.082 33.7502 134.932 33.6502 135.932 33.6502C137.032 33.6502 138.482 33.3502 140.282 32.7502L141.482 32.6002C143.682 32.6002 144.932 32.8002 145.232 33.2002C145.632 33.5002 146.032 33.6502 146.432 33.6502C147.932 32.6502 149.582 32.1502 151.382 32.1502C151.582 31.9502 152.132 31.8502 153.032 31.8502L153.932 32.1502C154.332 32.1502 154.582 32.1002 154.682 32.0002C154.882 31.8002 155.132 31.7002 155.432 31.7002L156.932 32.1502L158.132 32.0002C159.032 32.0002 159.682 32.3502 160.082 33.0502C160.482 33.7502 160.932 34.2502 161.432 34.5502C162.032 34.8502 162.332 35.2002 162.332 35.6002L162.032 36.8002C162.032 37.2002 162.082 37.6002 162.182 38.0002C162.382 38.4002 162.532 38.7502 162.632 39.0502C162.832 39.2502 162.932 39.4502 162.932 39.6502C161.232 43.1502 160.232 45.0002 159.932 45.2002C159.232 46.0002 158.832 46.8002 158.732 47.6002C158.632 48.4002 158.332 49.1002 157.832 49.7002C157.432 50.2002 157.232 50.7002 157.232 51.2002C157.232 51.7002 157.132 52.1502 156.932 52.5502C156.932 53.4502 156.832 54.3002 156.632 55.1002C155.432 57.2002 154.482 61.0502 153.782 66.6502C153.582 68.2502 153.232 69.3502 152.732 69.9502C152.232 70.5502 151.482 71.3502 150.482 72.3502C150.482 72.5502 150.332 72.8502 150.032 73.2502C149.032 74.6502 148.332 75.3502 147.932 75.3502C147.532 75.3502 147.232 75.4502 147.032 75.6502C146.932 75.7502 146.732 75.8002 146.432 75.8002C145.432 75.8002 144.432 75.9002 143.432 76.1002C142.632 76.1002 142.082 75.8502 141.782 75.3502C141.582 75.3502 141.482 75.4502 141.482 75.6502C141.482 75.7502 141.582 75.9002 141.782 76.1002C141.982 76.3002 142.082 76.6002 142.082 77.0002C140.282 77.6002 139.332 78.0002 139.232 78.2002C139.132 78.4002 138.732 78.7002 138.032 79.1002C136.732 79.9002 135.532 80.3002 134.432 80.3002C134.232 80.3002 134.032 80.5002 133.832 80.9002C133.232 82.0002 132.882 82.7502 132.782 83.1502C132.482 84.1502 131.782 84.9502 130.682 85.5502C130.282 85.7502 130.082 86.0002 130.082 86.3002C130.082 87.2002 129.882 87.6502 129.482 87.6502Z" fill="black"/>
<path d="M91.2492 97.6998L91.5492 97.5498C91.5492 97.3498 91.4492 97.2498 91.2492 97.2498V97.6998ZM21.1992 92.7498C20.7992 92.7498 20.3492 92.4998 19.8492 91.9998C18.8492 91.9998 17.2992 92.2498 15.1992 92.7498C13.7992 92.7498 12.9992 92.6498 12.7992 92.4498C11.5992 91.4498 10.5992 90.8998 9.79922 90.7998C9.09922 90.5998 8.44922 89.9998 7.84922 88.9998C7.64922 88.7998 7.34922 88.6998 6.94922 88.6998C6.04922 88.6998 5.49922 88.4998 5.29922 88.0998V87.0498C4.49922 86.8498 4.04922 86.6498 3.94922 86.4498C3.84922 86.2498 3.79922 85.7498 3.79922 84.9498C3.59922 84.9498 3.49922 84.6498 3.49922 84.0498L1.99922 81.9498C1.99922 81.2498 1.89922 80.7998 1.69922 80.5998C0.899219 78.9998 0.499219 77.9998 0.499219 77.5998C0.699219 77.3998 0.799219 76.8498 0.799219 75.9498L0.199219 75.0498L1.09922 72.9498C1.09922 72.7498 0.849219 72.3498 0.349219 71.7498C0.349219 71.2498 0.499219 70.8998 0.799219 70.6998C0.799219 70.0998 0.599219 69.5998 0.199219 69.1998L1.09922 67.6998L0.799219 67.0998C0.999219 66.4998 1.29922 65.8498 1.69922 65.1498C2.19922 64.3498 2.49922 63.4498 2.59922 62.4498C2.59922 62.0498 2.49922 61.7498 2.29922 61.5498C2.49922 61.0498 2.89922 60.5998 3.49922 60.1998C4.09922 59.7998 4.39922 59.1498 4.39922 58.2498C4.39922 57.2498 4.54922 56.6498 4.84922 56.4498C5.24922 56.1498 5.54922 55.8498 5.74922 55.5498C5.94922 55.1498 6.14922 54.8498 6.34922 54.6498C6.84922 53.2498 7.94922 52.5498 9.64922 52.5498C9.74922 52.5498 9.79922 52.2498 9.79922 51.6498C9.79922 50.9498 9.89922 50.5498 10.0992 50.4498C10.3992 50.3498 10.5992 50.1498 10.6992 49.8498C10.8992 49.5498 11.2992 49.3498 11.8992 49.2498C12.4992 49.1498 12.7992 48.7498 12.7992 48.0498C12.7992 47.3498 13.2992 46.7498 14.2992 46.2498C14.4992 46.1498 14.7992 45.5498 15.1992 44.4498C16.1992 43.3498 17.5492 42.7498 19.2492 42.6498C19.8492 42.6498 20.3492 42.7498 20.7492 42.9498C21.0492 42.9498 21.1992 42.8498 21.1992 42.6498H21.7992C22.3992 43.2498 22.8992 43.5498 23.2992 43.5498C23.2992 44.7498 24.3992 45.5498 26.5992 45.9498C27.0992 46.0498 27.5992 46.3998 28.0992 46.9998C28.5992 47.5998 29.2492 47.9998 30.0492 48.1998C30.0492 49.2998 30.2492 50.0998 30.6492 50.5998H30.9492C31.4492 51.0998 31.6992 51.4498 31.6992 51.6498L29.4492 55.5498L26.1492 56.5998C25.8492 56.5998 25.5992 56.4998 25.3992 56.2998H24.4992L24.1992 56.5998H23.2992C23.0992 56.7998 22.9492 56.9998 22.8492 57.1998C22.7492 57.3998 22.5992 57.5498 22.3992 57.6498C21.7992 57.9498 21.1492 58.4998 20.4492 59.2998C20.0492 59.2998 19.6992 59.5498 19.3992 60.0498C19.0992 60.5498 18.7992 60.8498 18.4992 60.9498C18.1992 61.0498 17.8492 61.1498 17.4492 61.2498C17.0492 61.2498 16.6492 61.4498 16.2492 61.8498C15.7492 63.0498 14.6992 64.2498 13.0992 65.4498L12.7992 66.0498C12.7992 66.3498 12.8992 66.5998 13.0992 66.7998C12.8992 67.3998 12.7492 67.7498 12.6492 67.8498C12.5492 67.9498 12.3992 68.2498 12.1992 68.7498C11.9992 69.2498 11.8992 70.0998 11.8992 71.2998C11.8992 73.5998 12.3992 75.2498 13.3992 76.2498C13.3992 76.9498 13.5492 77.4498 13.8492 77.7498C14.1492 78.0498 14.4992 78.2998 14.8992 78.4998C15.2992 78.6998 15.6492 78.9498 15.9492 79.2498C16.2492 79.5498 16.5492 79.8998 16.8492 80.2998C17.2492 80.6998 17.8492 80.8998 18.6492 80.8998L19.2492 80.5998C19.4492 80.5998 19.5492 80.6998 19.5492 80.8998C22.5492 80.8998 24.4992 80.6998 25.3992 80.2998H27.0492C27.8492 79.4998 28.5492 78.9998 29.1492 78.7998C29.7492 78.5998 30.0492 78.0998 30.0492 77.2998C30.2492 77.0998 30.3492 76.8498 30.3492 76.5498C30.3492 76.1498 30.4492 75.7498 30.6492 75.3498C31.3492 75.3498 31.6992 74.8498 31.6992 73.8498C31.4992 73.6498 31.3992 73.3498 31.3992 72.9498C31.7992 72.1498 32.0492 71.6998 32.1492 71.5998C32.2492 71.4998 32.2992 71.2998 32.2992 70.9998C32.2992 69.9998 32.0992 69.1998 31.6992 68.5998C30.4992 67.6998 29.4492 66.6498 28.5492 65.4498L26.7492 64.2498L27.0492 63.0498L26.7492 62.7498V61.5498L27.6492 61.0998V59.2998L30.6492 58.9998C31.3492 59.6998 32.0492 60.0498 32.7492 60.0498C33.4492 60.0498 33.7992 59.9498 33.7992 59.7498C33.7992 59.4498 33.9992 59.0998 34.3992 58.6998L35.5992 59.2998C37.0992 59.2998 38.1492 59.4998 38.7492 59.8998C40.0492 61.6998 40.8992 62.7998 41.2992 63.1998C41.6992 63.4998 41.8992 63.7498 41.8992 63.9498L41.7492 64.5498C41.8492 64.9498 42.0492 65.2998 42.3492 65.5998C42.6492 65.8998 42.8992 66.1498 43.0992 66.3498C43.2992 66.4498 43.3992 66.5998 43.3992 66.7998C43.3992 66.9998 43.2492 67.2498 42.9492 67.5498C42.6492 67.8498 42.4992 68.7998 42.4992 70.3998L42.7992 72.0498C42.7992 72.4498 42.6992 72.7998 42.4992 73.0998C42.2992 73.3998 42.1492 73.9498 42.0492 74.7498C41.9492 75.4498 41.7992 75.9498 41.5992 76.2498C41.4992 76.5498 41.4492 77.1998 41.4492 78.1998C40.8492 79.6998 40.4492 80.5498 40.2492 80.7498C39.6492 81.5498 39.1492 82.3498 38.7492 83.1498C37.8492 85.4498 35.9992 87.2998 33.1992 88.6998L32.5992 89.1498H30.4992C29.9992 89.2498 29.6492 89.5998 29.4492 90.1998C29.6492 90.1998 29.7492 90.2998 29.7492 90.4998L29.4492 90.7998L25.8492 91.5498C25.0492 92.0498 24.2492 92.2998 23.4492 92.2998C22.7492 92.2998 22.2992 92.3998 22.0992 92.5998C21.8992 92.6998 21.5992 92.7498 21.1992 92.7498ZM48.9492 51.9498H46.6992C46.4992 51.5498 46.0992 51.1998 45.4992 50.8998C44.8992 50.4998 44.4992 50.1998 44.2992 49.9998C44.0992 49.6998 43.9992 49.3998 43.9992 49.0998C43.1992 49.0998 42.3992 48.6498 41.5992 47.7498C41.2992 47.4498 41.1492 46.8498 41.1492 45.9498C41.1492 45.6498 41.0492 45.4498 40.8492 45.3498L41.1492 44.7498C41.1492 44.5498 40.8492 44.1498 40.2492 43.5498C40.0492 42.7498 39.9492 41.3998 39.9492 39.4998C40.1492 39.2998 40.5492 39.1998 41.1492 39.1998C41.6492 39.1998 42.0992 39.2998 42.4992 39.4998C42.8992 39.6998 43.1992 39.7998 43.3992 39.7998C43.7992 39.7998 44.0992 39.6998 44.2992 39.4998C44.4992 39.2998 44.7992 39.1998 45.1992 39.1998L46.3992 39.4998C47.4992 39.4998 48.4492 39.0998 49.2492 38.2998C49.6492 38.2998 49.8492 38.3998 49.8492 38.5998H50.4492C50.8492 38.1998 51.2492 37.8998 51.6492 37.6998C52.0492 37.4998 52.3992 37.2998 52.6992 37.0998C53.0992 36.8998 53.3992 36.7998 53.5992 36.7998C53.9992 36.7998 54.2992 36.8998 54.4992 37.0998C54.6992 37.0998 55.0492 36.9998 55.5492 36.7998C56.0492 36.5998 56.4492 36.4498 56.7492 36.3498C57.1492 36.2498 57.4492 36.0998 57.6492 35.8998C58.0492 36.0998 58.5492 36.1998 59.1492 36.1998C59.9492 36.1998 60.4992 36.0998 60.7992 35.8998C61.0992 35.6998 61.5992 35.5998 62.2992 35.5998C63.0992 35.5998 63.5992 35.3998 63.7992 34.9998L64.9992 35.2998C65.4992 34.7998 66.1992 34.5498 67.0992 34.5498C67.9992 34.5498 68.5492 34.4498 68.7492 34.2498C70.3492 34.2498 71.5492 34.3998 72.3492 34.6998C73.2492 34.8998 74.1992 34.9998 75.1992 34.9998L76.0992 35.8998C76.2992 35.6998 76.8992 35.5998 77.8992 35.5998C78.7992 35.5998 79.4492 35.7998 79.8492 36.1998C80.2492 36.5998 80.8492 36.8498 81.6492 36.9498C82.4492 37.0498 83.0492 37.1998 83.4492 37.3998C83.4492 37.9998 83.6492 38.4998 84.0492 38.8998C84.5492 39.2998 84.8992 39.5998 85.0992 39.7998C85.2992 39.9998 85.3992 40.1498 85.3992 40.2498C85.3992 40.4498 85.2992 40.6498 85.0992 40.8498C84.8992 41.0498 84.7992 41.5998 84.7992 42.4998C84.7992 43.3998 84.1492 44.0498 82.8492 44.4498C81.7492 45.1498 81.0992 45.6998 80.8992 46.0998C80.7992 46.4998 80.6492 46.8998 80.4492 47.2998L79.8492 46.9998L77.5992 48.1998L76.0992 47.8998C75.6992 48.2998 75.2992 48.5498 74.8992 48.6498C74.4992 48.7498 74.0992 48.8998 73.6992 49.0998C73.2992 49.2998 72.7492 49.3998 72.0492 49.3998C71.4492 49.3998 70.7492 49.4998 69.9492 49.6998H67.6992L67.3992 49.3998L66.1992 49.9998L64.3992 49.0998C64.1992 49.0998 63.9992 49.1998 63.7992 49.3998C63.5992 49.5998 63.2992 49.6998 62.8992 49.6998C62.8992 49.0998 61.5492 48.7998 58.8492 48.7998L56.2992 49.0998L55.6992 48.7998C55.1992 48.9998 54.8492 49.4498 54.6492 50.1498C54.5492 50.7498 54.3992 51.1498 54.1992 51.3498C53.1992 51.6498 52.2492 51.7998 51.3492 51.7998L50.4492 51.6498L48.9492 51.9498ZM100.249 118.7C100.049 118.7 99.7492 118.65 99.3492 118.55C99.0492 118.35 98.4992 118.25 97.6992 118.25H97.3992C97.1992 118.25 97.0492 118.15 96.9492 117.95C96.8492 117.75 96.6992 117.6 96.4992 117.5C96.2992 117.4 95.9992 116.95 95.5992 116.15C94.3992 116.15 93.4492 115.75 92.7492 114.95C91.7492 114.65 91.2492 113.9 91.2492 112.7V110.9C90.2492 109.9 89.7492 108.55 89.7492 106.85L90.0492 105.95C90.0492 104.85 89.8492 104.15 89.4492 103.85C89.0492 103.45 88.8492 103.15 88.8492 102.95L89.1492 101.9C89.1492 101.1 89.0492 100.5 88.8492 100.1C89.0492 99.3998 89.3492 98.6998 89.7492 97.9998L89.2992 97.0998C89.2992 96.6998 89.4492 96.3498 89.7492 96.0498L90.0492 94.5498C89.4492 93.3498 89.1492 92.5998 89.1492 92.2998L89.4492 91.6998C89.4492 90.6998 89.3492 89.9498 89.1492 89.4498C89.1492 89.1498 89.3492 88.7998 89.7492 88.3998C90.1492 87.9998 90.3492 87.3498 90.3492 86.4498C89.7492 85.8498 89.3992 85.2998 89.2992 84.7998L89.7492 83.1498C89.7492 82.9498 89.5492 82.6498 89.1492 82.2498L89.4492 81.1998C89.4492 80.7998 89.3492 80.5498 89.1492 80.4498C88.9492 80.3498 88.8492 80.1998 88.8492 79.9998L89.4492 79.0998C89.4492 78.8998 89.3992 78.7498 89.2992 78.6498C89.1992 78.5498 89.0492 78.3998 88.8492 78.1998C88.7492 77.9998 88.6992 77.6998 88.6992 77.2998C88.9992 76.8998 89.1492 76.2498 89.1492 75.3498L88.6992 75.0498C88.4992 75.2498 88.2992 75.5998 88.0992 76.0998C87.8992 76.4998 87.4992 76.6998 86.8992 76.6998C86.2992 76.6998 85.8992 76.8998 85.6992 77.2998C85.4992 77.5998 84.9992 77.8498 84.1992 78.0498C83.3992 78.2498 82.6992 78.6498 82.0992 79.2498C81.7992 79.5498 81.3492 79.6998 80.7492 79.6998L80.1492 79.3998C79.5492 79.5998 79.1992 79.9998 79.0992 80.5998C78.9992 81.1998 78.1992 81.4998 76.6992 81.4998C75.9992 81.4998 75.3992 81.6998 74.8992 82.0998C74.4992 82.3998 73.9992 82.5498 73.3992 82.5498C72.6992 82.5498 72.2992 82.4998 72.1992 82.3998C72.0992 82.2998 71.7492 82.1498 71.1492 81.9498L70.2492 82.8498C70.2492 83.4498 69.9492 83.7498 69.3492 83.7498C68.5492 83.7498 67.8992 83.6498 67.3992 83.4498C66.7992 84.0498 66.1992 84.3498 65.5992 84.3498C64.9992 83.9498 63.2992 83.7498 60.4992 83.7498C59.7992 83.7498 59.3992 83.6498 59.2992 83.4498C59.1992 83.2498 59.0492 83.1498 58.8492 83.1498C58.6492 83.1498 58.4492 83.0498 58.2492 82.8498L57.1992 83.1498C56.7992 82.9498 56.4992 82.7498 56.2992 82.5498C56.0992 82.3498 55.8992 82.2498 55.6992 82.2498L54.7992 82.8498C54.5992 82.8498 54.3492 82.7498 54.0492 82.5498C53.7492 82.3498 53.4992 82.1998 53.2992 82.0998C53.0992 81.9998 52.9992 81.3998 52.9992 80.2998C52.4992 80.2998 52.2492 79.9998 52.2492 79.3998C51.8492 78.9998 51.4492 78.7998 51.0492 78.7998C50.6492 78.6998 50.4492 78.0998 50.4492 76.9998C50.2492 76.6998 49.8992 76.3998 49.3992 76.0998C48.8992 75.7998 48.6492 75.3498 48.6492 74.7498C48.6492 74.3498 48.7492 74.1498 48.9492 74.1498V73.8498C49.3492 73.8498 49.5492 73.7498 49.5492 73.5498C49.5492 73.1498 49.3492 72.8998 48.9492 72.7998C48.5492 72.6998 48.3492 72.3498 48.3492 71.7498C48.3492 71.1498 49.0992 70.6498 50.5992 70.2498C52.1992 69.7498 53.0992 69.4998 53.2992 69.4998C53.6992 69.4998 54.1492 69.6998 54.6492 70.0998C55.2492 70.4998 56.0492 70.6998 57.0492 70.6998C58.0492 70.6998 58.7492 70.7998 59.1492 70.9998C59.7492 70.9998 60.0492 70.7998 60.0492 70.3998L60.9492 69.4998H62.4492L62.8992 69.1998L63.4992 69.4998C64.6992 69.4998 65.4492 69.3498 65.7492 69.0498C66.1492 68.6498 66.9492 68.3498 68.1492 68.1498C68.9492 68.0498 69.5492 67.7998 69.9492 67.3998C71.1492 66.2998 72.5992 65.7498 74.2992 65.7498C75.0992 65.3498 75.6992 64.9498 76.0992 64.5498C77.2992 64.3498 77.9492 64.2498 78.0492 64.2498C78.1492 64.2498 78.2992 64.1498 78.4992 63.9498C78.7992 63.7498 79.1492 63.5498 79.5492 63.3498C80.5492 63.3498 81.0992 63.1998 81.1992 62.8998C81.2992 62.5998 81.6492 62.4498 82.2492 62.4498C86.1492 61.4498 88.2992 59.4998 88.6992 56.5998C89.9992 56.3998 90.6492 54.8498 90.6492 51.9498C90.6492 50.8498 90.7992 49.9498 91.0992 49.2498C91.3992 48.5498 91.5992 47.7998 91.6992 46.9998C91.7992 46.1998 92.1492 45.5498 92.7492 45.0498L93.3492 43.8498L93.0492 41.4498L93.3492 40.5498L93.0492 40.0998C93.2492 40.0998 93.5992 39.7998 94.0992 39.1998V38.2998L95.2992 37.9998L95.8992 36.7998L95.2992 34.5498C95.2992 33.7498 95.4992 33.1498 95.8992 32.7498C96.2992 32.3498 96.5992 31.8498 96.7992 31.2498C96.9992 30.6498 97.2992 30.1498 97.6992 29.7498C98.0992 29.2498 98.2992 28.6998 98.2992 28.0998C99.3992 27.8998 99.9992 27.7998 100.099 27.7998C100.199 27.7998 100.249 27.6998 100.249 27.4998L99.9492 25.9998C100.249 21.8998 100.949 19.8498 102.049 19.8498L102.649 20.1498L102.949 19.8498L102.649 19.5498V18.7998L102.949 18.4998H104.149L104.599 17.5998C105.199 17.5998 105.599 17.4998 105.799 17.2998C107.099 17.5998 108.349 18.5498 109.549 20.1498C109.949 20.4498 110.149 20.8498 110.149 21.3498L109.849 21.9498C109.849 22.9498 109.949 23.5998 110.149 23.8998C110.349 24.1998 110.449 24.7998 110.449 25.6998C110.249 26.0998 109.849 26.4998 109.249 26.8998C108.749 27.2998 108.499 28.1998 108.499 29.5998C108.499 30.0998 108.649 30.4998 108.949 30.7998C109.249 31.0998 109.399 31.7498 109.399 32.7498C108.399 34.6498 107.899 35.9998 107.899 36.7998L108.199 37.6998C108.199 38.8998 107.899 39.9998 107.299 40.9998C107.299 41.2998 107.349 41.4998 107.449 41.5998C107.549 41.6998 107.699 41.8998 107.899 42.1998C108.099 42.4998 108.199 42.9498 108.199 43.5498C108.199 44.3498 108.099 44.9998 107.899 45.4998C107.699 45.8998 107.599 46.3998 107.599 46.9998C107.599 47.5998 107.499 48.1998 107.299 48.7998C107.299 52.7998 107.399 54.9998 107.599 55.3998C107.799 55.6998 108.049 56.0498 108.349 56.4498C108.649 56.7498 108.899 57.0998 109.099 57.4998C108.899 57.8998 108.749 58.2498 108.649 58.5498C108.549 58.8498 108.399 59.0998 108.199 59.2998C107.999 59.4998 107.799 59.7998 107.599 60.1998C107.799 60.7998 107.899 61.6498 107.899 62.7498L108.199 63.3498C107.799 64.1498 107.599 65.0498 107.599 66.0498C107.599 66.9498 107.499 67.6998 107.299 68.2998C107.299 68.4998 107.399 68.7998 107.599 69.1998C107.799 69.5998 107.899 70.0998 107.899 70.6998C107.899 71.1998 107.999 71.6998 108.199 72.1998C108.399 72.6998 108.499 73.3498 108.499 74.1498C108.299 74.3498 108.199 74.6498 108.199 75.0498C108.199 75.2498 108.299 75.4998 108.499 75.7998C108.699 76.0998 108.799 76.3998 108.799 76.6998L108.499 77.8998C108.499 78.8998 108.649 79.5498 108.949 79.8498C109.249 80.1498 109.399 81.3498 109.399 83.4498C109.399 86.3498 109.449 88.5998 109.549 90.1998L109.399 91.3998C109.499 91.7998 109.749 92.0998 110.149 92.2998C110.349 92.7998 110.449 93.3498 110.449 93.9498C110.449 94.5498 110.549 95.0498 110.749 95.4498C110.549 96.9498 110.399 98.4498 110.299 99.9498C110.199 101.45 110.049 102.55 109.849 103.25L111.049 105.65C111.049 105.85 110.799 106 110.299 106.1C109.799 106.2 109.099 107.1 108.199 108.8C108.199 109.4 108.299 109.8 108.499 110C108.499 110.6 107.699 111.3 106.099 112.1V113.45C105.899 113.85 105.549 114.15 105.049 114.35C104.549 114.45 104.299 115.05 104.299 116.15C102.199 117.25 101.049 117.95 100.849 118.25C100.649 118.45 100.449 118.6 100.249 118.7Z" fill="black"/>
</svg>
